# xmcd
#
# Track frame offsets:
#   150
#   19171
#   36978
#   53390
#   72648
#   90504
#   108814
#   123980
#   141299
#   160201
#   170324
#   189635
#   205633
#   219335
#   230841
#   246490
#   269171
#
# Disc length: 3781 seconds
#
# Revision: 0
# Processed by: cddbd v1.5.1PL2 Copyright (c) Steve Scherf et al.
# Submitted via: uFREEDB ActiveX Control 1.5
#
DISCID=f70ec311
DTITLE=DENIZE - DENIZE
DYEAR=1900
DGENRE=Alternative
TTITLE0=DE 01
TTITLE1=DE 02
TTITLE2=DE 03
TTITLE3=DE 04
TTITLE4=DE 05
TTITLE5=DE 06
TTITLE6=DE 07
TTITLE7=DE 08
TTITLE8=DE 09
TTITLE9=DE 10
TTITLE10=DE 11
TTITLE11=DE 12
TTITLE12=DE 13
TTITLE13=DE 14
TTITLE14=DE 15
TTITLE15=DE 16
TTITLE16=DE 17
EXTD=
EXTT0=
EXTT1=
EXTT2=
EXTT3=
EXTT4=
EXTT5=
EXTT6=
EXTT7=
EXTT8=
EXTT9=
EXTT10=
EXTT11=
EXTT12=
EXTT13=
EXTT14=
EXTT15=
EXTT16=
PLAYORDER=
